PathFileType	4	(X/Y/Z)	Running2.trc
DataRate	CameraRate	NumFrames	NumMarkers	Units	OrigDataRate	OrigDataStartFrame	OrigNumFrames
100	100	45	2	mm	100	751	6000
Frame#	Time	mal_lat_left			mal_lat_right		
		X	Y	Z	X	Y	Z	
751	3.75	1035.87731933594	352.175323486328	94.1778411865234	492.373504638672	152.495590209961	287.899261474609
752	3.755	1031.00280761719	351.399383544922	92.8328628540039	492.768646240234	152.602767944336	292.443878173828
753	3.76	1023.88220214844	349.264770507812	91.3492584228516	493.676544189453	152.478149414062	296.858551025391
754	3.765	1012.38543701172	346.081573486328	90.1438674926758	495.320526123047	152.413970947266	301.025421142578
755	3.77	998.845153808594	342.867279052734	89.4916763305664	497.625732421875	152.311050415039	304.970733642578
756	3.775	986.65185546875	340.754241943359	89.2904891967773	500.749481201172	152.231338500977	308.646087646484
757	3.78	975.631652832031	339.206909179688	89.8378067016602	504.648773193359	152.183670043945	312.076110839844
758	3.785	965.604675292969	338.432373046875	90.8711776733398	509.35009765625	152.16471862793	315.289215087891
759	3.79	955.130676269531	337.967346191406	91.8845825195312	514.800537109375	152.122695922852	318.183990478516
760	3.795	943.841186523438	337.762390136719	93.0822906494141	520.956176757812	152.228881835938	320.7578125
761	3.8	932.229187011719	337.889221191406	94.1897659301758	527.7236328125	152.481140136719	322.953247070312
762	3.805	920.823303222656	338.153350830078	94.9193725585938	535.036071777344	152.721572875977	324.713623046875
763	3.81	909.856872558594	339.013092041016	95.7030334472656	542.826965332031	153.091522216797	326.033508300781
764	3.815	898.836608886719	339.922760009766	96.5003509521484	550.743286132812	153.732727050781	326.861877441406
765	3.82	887.456298828125	340.890411376953	97.0652008056641	559.668395996094	153.87141418457	327.200317382812
766	3.825	876.136413574219	341.585510253906	97.4682388305664	568.404968261719	154.378479003906	327.016815185547
767	3.83	864.599670410156	342.121459960938	97.7934722900391	577.183288574219	154.978225708008	326.315490722656
768	3.835	852.800720214844	342.402557373047	98.2383270263672	586.724853515625	155.064590454102	325.1083984375
769	3.84	841.047546386719	342.374542236328	98.5922241210938	596.005920410156	155.358581542969	323.332885742188
770	3.845	828.938537597656	342.572418212891	99.1683654785156	605.617736816406	155.768280029297	321.150573730469
771	3.85	816.941772460938	342.567474365234	99.8020248413086	615.174560546875	156.236129760742	318.427062988281
772	3.855	804.938293457031	342.594146728516	100.511009216309	624.894836425781	156.81201171875	315.156188964844
773	3.86	792.89697265625	342.643768310547	101.405014038086	634.638305664062	157.306365966797	311.533111572266
774	3.865	780.960388183594	342.635131835938	102.394187927246	644.548828125	157.903991699219	307.416656494141
775	3.87	769.039428710938	342.824188232422	103.600120544434	654.409423828125	158.611526489258	302.923736572266
776	3.875	757.311218261719	342.912170410156	104.942237854004	664.387756347656	159.380065917969	298.072601318359
777	3.88	745.729553222656	343.246185302734	106.595100402832	674.438232421875	160.233139038086	292.864532470703
778	3.885	734.309875488281	343.610046386719	108.530952453613	684.613464355469	161.200531005859	287.299896240234
779	3.89	723.154357910156	344.000305175781	110.718948364258	694.942749023438	162.326782226562	281.449249267578
780	3.895	712.216552734375	344.595550537109	113.245880126953	705.393798828125	163.35905456543	275.241790771484
781	3.9	701.5654296875	345.213073730469	116.019714355469	716.109130859375	164.625885009766	268.779052734375
782	3.905	691.183776855469	346.099090576172	119.072845458984	726.941284179688	165.857376098633	262.123321533203
783	3.91	681.115356445312	347.1142578125	122.432464599609	738.186584472656	167.282165527344	255.091232299805
784	3.915	671.320068359375	348.268493652344	126.031005859375	749.592346191406	168.590118408203	248.021789550781
785	3.92	661.947326660156	349.497650146484	129.751693725586	761.357177734375	170.136367797852	240.708297729492
786	3.925	652.833740234375	350.769409179688	133.714950561523	773.402099609375	171.570159912109	233.34065246582
787	3.93	644.154296875	352.132476806641	137.876480102539	785.689697265625	173.058013916016	225.819183349609
788	3.935	635.815246582031	353.285858154297	142.001953125	798.347106933594	174.574401855469	218.270660400391
789	3.94	627.856079101562	354.711944580078	146.377166748047	811.346740722656	176.303298950195	210.595687866211
790	3.945	620.254211425781	356.109466552734	150.828582763672	824.574829101562	177.785583496094	202.985412597656
791	3.95	612.967712402344	357.567199707031	155.338775634766	838.094787597656	179.140472412109	195.325500488281
792	3.955	606.104248046875	359.057708740234	159.861297607422	852.255493164062	180.641479492188	187.654983520508
793	3.96	599.525024414062	360.504211425781	164.487243652344	866.430786132812	181.949584960938	180.239608764648
794	3.965	593.238891601562	362.005432128906	169.046997070312	880.850646972656	183.154693603516	172.917373657227
795	3.97	587.223266601562	363.480682373047	173.781784057617	895.447143554688	184.347930908203	165.777572631836
